<svg xmlns="http://www.w3.org/2000/svg" width="100" height="100" viewBox="0 0 100 100">
  <g fill="none" fill-rule="evenodd" transform="translate(2 2)">
    <polygon fill="#E8DFF7" points="2 80 94 80 94 2 2 2"/>
    <polygon fill="#C1A4E9" points="3.923 77.998 91.994 77.998 91.994 70.019 3.923 70.019"/>
    <path fill="#E8DFF7" d="M32.0004 94.0002L32.0004 80.0002 32.0004 94.0002zM63.9999 94.0002L63.9999 80.0002 63.9999 94.0002zM21.9996 94.0002L73.9996 94.0002 21.9996 94.0002zM1.9998 68.0001L93.9998 68.0001 1.9998 68.0001z"/>
    <path fill="#453C82" d="M0,-0.0003 L0,81.9997 L30,81.9997 L30,92.0007 L22,92.0007 L22,95.9997 L74,95.9997 L74,92.0007 L66,92.0007 L66,81.9997 L96,81.9997 L96,-0.0003 L0,-0.0003 Z M4,66.0007 L92,66.0007 L92,4.0007 L4,4.0007 L4,66.0007 Z M4,77.9997 L92,77.9997 L92,69.9997 L4,69.9997 L4,77.9997 Z M34,92.0007 L62,92.0007 L62,81.9997 L34,81.9997 L34,92.0007 Z"/>
    <polyline fill="#C1A4E9" points="70 29.198 70 40.398 70 56 48 56 26 56 26 44.8 26 30.859"/>
    <polygon fill="#453C82" points="72 58 24 58 24 30.859 28 30.859 28 54 68 54 68 29.198 72 29.198"/>
    <g transform="translate(20 12)">
      <path fill="#C1A4E9" d="M38.7998,2 L49.5998,2 L53.7998,13.8 C55.1998,17.8 52.1998,22 47.7998,22 C44.7998,22 41.9998,19.8 41.5998,16.8 L38.7998,2 Z"/>
      <path fill="#C1A4E9" d="M28,2 L38.8,2 L41,14.8 C41.6,18.6 38.6,22 34.8,22 L34.4,22 C30.8,22 28,19.2 28,15.8 L28,2 Z"/>
      <path fill="#C1A4E9" d="M17.2002,2 L28.0002,2 L28.0002,15.8 C28.0002,19.2 25.2002,22 21.6002,22 L21.2002,22 C17.2002,22 14.2002,18.6 15.0002,14.8 L17.2002,2 Z"/>
      <path fill="#C1A4E9" d="M6.6001,2 L17.4001,2 L14.8001,16.8 C14.0001,19.8 11.4001,22 8.4001,22 C4.0001,22 1.0001,17.8 2.4001,13.8 L6.6001,2 Z"/>
      <line x1="2" x2="54" y1="14" y2="14" fill="#C1A4E9"/>
      <path fill="#453C82" d="M47.7998,20 C45.7298,20 43.8368,18.446 43.5818,16.535 L43.4808,16 L52.1378,16 C52.1048,16.772 51.8518,17.527 51.3828,18.188 C50.5668,19.339 49.2598,20 47.7998,20 L47.7998,20 Z M38.0608,18.489 C37.2398,19.449 36.0518,20 34.7998,20 L34.4008,20 C32.0048,20 30.1288,18.257 30.0208,16 L39.0698,16 C39.0208,16.907 38.6768,17.768 38.0608,18.489 L38.0608,18.489 Z M21.5998,20 L21.1998,20 C19.8108,20 18.5438,19.421 17.7248,18.412 C17.2308,17.803 16.9668,17.087 16.9078,16.315 L16.9638,16 L25.9798,16 C25.8708,18.257 23.9948,20 21.5998,20 L21.5998,20 Z M8.3998,20 C6.9398,20 5.6338,19.339 4.8168,18.188 C4.3478,17.526 4.0948,16.771 4.0608,16 L12.8788,16 C12.8788,16.062 12.8758,16.124 12.8768,16.186 L12.8458,16.362 C12.2408,18.508 10.4228,20 8.3998,20 L8.3998,20 Z M8.0108,4 L14.8278,4 L13.4528,12 L5.1638,12 L8.0108,4 Z M25.9998,4 L25.9998,12 L17.6688,12 L19.0768,4 L25.9998,4 Z M37.1138,4 L38.4888,12 L29.9998,12 L29.9998,4 L37.1138,4 Z M48.1888,4 L51.0358,12 L42.7258,12 L41.2138,4 L48.1888,4 Z M55.6838,13.129 L51.0108,0 L40.4858,0 L36.3858,0 L29.9998,0 L25.9998,0 L19.7818,0 L15.5148,0 L5.1888,0 L0.5118,13.139 C-0.3662,15.647 0.0138,18.332 1.5548,20.502 C3.1318,22.725 5.6268,24 8.3998,24 C10.8538,24 13.1308,22.884 14.7358,21.06 C16.3178,22.927 18.6598,24 21.1998,24 L21.5998,24 C24.1628,24 26.4578,22.871 27.9998,21.098 C29.5418,22.871 31.8368,24 34.4008,24 L34.7998,24 C37.2228,24 39.5208,22.938 41.1018,21.087 C41.1648,21.014 41.2178,20.933 41.2778,20.857 C42.8128,22.76 45.2068,24 47.7998,24 C50.5728,24 53.0688,22.725 54.6458,20.502 C56.1858,18.331 56.5658,15.647 55.6838,13.129 L55.6838,13.129 Z"/>
    </g>
  </g>
</svg>
