<svg xmlns="http://www.w3.org/2000/svg" xmlns:xlink="http://www.w3.org/1999/xlink" width="612" height="820" viewBox="0 0 612 820">
  <defs>
    <polygon id="process-a" points=".588 .909 90.992 .909 90.992 91.211 .588 91.211"/>
    <polygon id="process-c" points=".146 .909 90.542 .909 90.542 91.211 .146 91.211"/>
    <polygon id="process-e" points=".949 .422 91.343 .422 91.343 90.726 .949 90.726"/>
    <polygon id="process-g" points=".949 .389 91.343 .389 91.343 90.693 .949 90.693"/>
  </defs>
  <g fill="none" fill-rule="evenodd" transform="rotate(-90 411.5 380.5)">
    <polygon fill="#E8DFF7" points="219 437 545 437 545 111 219 111"/>
    <path fill="#453C82" d="M226.942941,429.056687 L537.057059,429.056687 L537.057059,118.943313 L226.942941,118.943313 L226.942941,429.056687 Z M211,445 L553,445 L553,103 L211,103 L211,445 Z"/>
    <polygon fill="#C1A4E9" points="286 370 478 370 478 178 286 178"/>
    <path fill="#453C82" d="M293.956427,362.043573 L470.043573,362.043573 L470.043573,185.956427 L293.956427,185.956427 L293.956427,362.043573 Z M278,378 L486,378 L486,170 L278,170 L278,378 Z"/>
    <polygon fill="#453C82" points="726 248 546 248 546 232.05 710.018 232.05 710.018 171 726 171"/>
    <polygon fill="#453C82" points="726 374 710.018 374 710.018 312.95 546 312.95 546 297 726 297"/>
    <polygon fill="#453C82" points="52.982 374 37 374 37 297 217 297 217 312.95 52.982 312.95"/>
    <polygon fill="#453C82" points="217 248 37 248 37 171 52.982 171 52.982 232.05 217 232.05"/>
    <polygon fill="#453C82" points="217 181 153 181 153 83 168.838 83 168.838 165.062 217 165.062"/>
    <polygon fill="#453C82" points="610 181 546 181 546 165.062 594.16 165.062 594.16 83 610 83"/>
    <polygon fill="#453C82" points="454 344.5 438.02 344.5 438.02 276.529 369 276.529 369 260.5 454 260.5" transform="rotate(90 411.5 302.5)"/>
    <polygon fill="#453C82" points="610 468 594.16 468 594.16 385.938 546 385.938 546 370 610 370"/>
    <polygon fill="#453C82" points="168.838 468 153 468 153 370 217 370 217 385.938 168.838 385.938"/>
    <polygon fill="#453C82" points="264 111 280 111 280 46 264 46"/>
    <polygon fill="#453C82" points="338 111 354 111 354 46 338 46"/>
    <polygon fill="#453C82" points="412 111 428 111 428 46 412 46"/>
    <polygon fill="#453C82" points="486 111 502 111 502 46 486 46"/>
    <polygon fill="#453C82" points="264 509 280 509 280 444 264 444"/>
    <polygon fill="#453C82" points="338 509 354 509 354 444 338 444"/>
    <polygon fill="#453C82" points="412 509 428 509 428 444 412 444"/>
    <polygon fill="#453C82" points="486 509 502 509 502 444 486 444"/>
    <path fill="#C1A4E9" d="M196.716779,46.058913 C196.716779,66.5922464 180.056279,83.2357246 159.493967,83.2357246 C138.939633,83.2357246 122.279133,66.5922464 122.279133,46.058913 C122.279133,25.5255797 138.939633,8.87413043 159.493967,8.87413043 C180.056279,8.87413043 196.716779,25.5255797 196.716779,46.058913"/>
    <g transform="translate(113.708)">
      <mask id="process-b" fill="#fff">
        <use xlink:href="#process-a"/>
      </mask>
      <path fill="#453C82" d="M45.7896229,16.8491304 C29.6637271,16.8491304 16.5459771,29.9534783 16.5459771,46.0628986 C16.5459771,62.1643478 29.6637271,75.2686957 45.7896229,75.2686957 C61.9155187,75.2686957 75.0332687,62.1643478 75.0332687,46.0628986 C75.0332687,29.9534783 61.9155187,16.8491304 45.7896229,16.8491304 M45.7896229,91.2107246 C20.8627062,91.2107246 0.58764375,70.9563768 0.58764375,46.0628986 C0.58764375,21.1614493 20.8627062,0.907101449 45.7896229,0.907101449 C70.7165396,0.907101449 90.9916021,21.1614493 90.9916021,46.0628986 C90.9916021,70.9563768 70.7165396,91.2107246 45.7896229,91.2107246" mask="url(#process-b)"/>
    </g>
    <path fill="#C1A4E9" d="M637.125288,46.058913 C637.125288,66.5922464 620.464788,83.2357246 599.910454,83.2357246 C579.356121,83.2357246 562.687642,66.5922464 562.687642,46.058913 C562.687642,25.5255797 579.356121,8.87413043 599.910454,8.87413043 C620.464788,8.87413043 637.125288,25.5255797 637.125288,46.058913"/>
    <g transform="translate(554.563)">
      <mask id="process-d" fill="#fff">
        <use xlink:href="#process-c"/>
      </mask>
      <path fill="#453C82" d="M45.3479542,16.8491304 C29.2220583,16.8491304 16.1043083,29.9534783 16.1043083,46.0628986 C16.1043083,62.1643478 29.2220583,75.2686957 45.3479542,75.2686957 C61.47385,75.2686957 74.5836208,62.1643478 74.5836208,46.0628986 C74.5836208,29.9534783 61.47385,16.8491304 45.3479542,16.8491304 M45.3479542,91.2107246 C20.4210375,91.2107246 0.145975,70.9563768 0.145975,46.0628986 C0.145975,21.1614493 20.4210375,0.907101449 45.3479542,0.907101449 C70.2668917,0.907101449 90.5419542,21.1614493 90.5419542,46.0628986 C90.5419542,70.9563768 70.2668917,91.2107246 45.3479542,91.2107246" mask="url(#process-d)"/>
    </g>
    <path fill="#C1A4E9" d="M754.615325,138.254855 C754.615325,158.788188 737.954825,175.439638 717.400492,175.439638 C696.846158,175.439638 680.177679,158.788188 680.177679,138.254855 C680.177679,117.721522 696.846158,101.070072 717.400492,101.070072 C737.954825,101.070072 754.615325,117.721522 754.615325,138.254855"/>
    <g transform="translate(671.25 92.681)">
      <mask id="process-f" fill="#fff">
        <use xlink:href="#process-e"/>
      </mask>
      <path fill="#453C82" d="M46.1504917,16.363913 C30.0245958,16.363913 16.9068458,29.4682609 16.9068458,45.5776812 C16.9068458,61.6791304 30.0245958,74.7834783 46.1504917,74.7834783 C62.2763875,74.7834783 75.3861583,61.6791304 75.3861583,45.5776812 C75.3861583,29.4682609 62.2763875,16.363913 46.1504917,16.363913 M46.1504917,90.7255072 C21.223575,90.7255072 0.9485125,70.4711594 0.9485125,45.5776812 C0.9485125,20.6762319 21.223575,0.421884058 46.1504917,0.421884058 C71.0694292,0.421884058 91.3444917,20.6762319 91.3444917,45.5776812 C91.3444917,70.4711594 71.0694292,90.7255072 46.1504917,90.7255072" mask="url(#process-f)"/>
    </g>
    <path fill="#C1A4E9" d="M754.615325,412.204275 C754.615325,432.737609 737.954825,449.389058 717.400492,449.389058 C696.846158,449.389058 680.177679,432.737609 680.177679,412.204275 C680.177679,391.670942 696.846158,375.027464 717.400492,375.027464 C737.954825,375.027464 754.615325,391.670942 754.615325,412.204275"/>
    <g transform="translate(671.25 366.667)">
      <mask id="process-h" fill="#fff">
        <use xlink:href="#process-g"/>
      </mask>
      <path fill="#453C82" d="M46.1504917,16.3310145 C30.0245958,16.3310145 16.9068458,29.4353623 16.9068458,45.5368116 C16.9068458,61.6462319 30.0245958,74.7505797 46.1504917,74.7505797 C62.2763875,74.7505797 75.3861583,61.6462319 75.3861583,45.5368116 C75.3861583,29.4353623 62.2763875,16.3310145 46.1504917,16.3310145 M46.1504917,90.6926087 C21.223575,90.6926087 0.9485125,70.4382609 0.9485125,45.5368116 C0.9485125,20.6433333 21.223575,0.388985507 46.1504917,0.388985507 C71.0694292,0.388985507 91.3444917,20.6433333 91.3444917,45.5368116 C91.3444917,70.4382609 71.0694292,90.6926087 46.1504917,90.6926087" mask="url(#process-h)"/>
    </g>
    <path fill="#C1A4E9" d="M639.361848,504.844203 C639.361848,525.377536 622.693369,542.028986 602.139035,542.028986 C581.584702,542.028986 564.924202,525.377536 564.924202,504.844203 C564.924202,484.318841 581.584702,467.667391 602.139035,467.667391 C622.693369,467.667391 639.361848,484.318841 639.361848,504.844203"/>
    <path fill="#453C82" d="M602.139035,475.637609 C586.01314,475.637609 572.903369,488.741957 572.903369,504.843406 C572.903369,520.952826 586.01314,534.057174 602.139035,534.057174 C618.264931,534.057174 631.382681,520.952826 631.382681,504.843406 C631.382681,488.741957 618.264931,475.637609 602.139035,475.637609 M602.139035,549.999203 C577.220098,549.999203 556.945035,529.744855 556.945035,504.843406 C556.945035,479.949928 577.220098,459.69558 602.139035,459.69558 C627.065952,459.69558 647.341015,479.949928 647.341015,504.843406 C647.341015,529.744855 627.065952,549.999203 602.139035,549.999203"/>
    <path fill="#C1A4E9" d="M197.671088,504.844203 C197.671088,525.377536 181.010588,542.028986 160.448275,542.028986 C139.893942,542.028986 123.233442,525.377536 123.233442,504.844203 C123.233442,484.318841 139.893942,467.667391 160.448275,467.667391 C181.010588,467.667391 197.671088,484.318841 197.671088,504.844203"/>
    <path fill="#453C82" d="M160.452265,475.637609 C144.326369,475.637609 131.208619,488.741957 131.208619,504.843406 C131.208619,520.952826 144.326369,534.057174 160.452265,534.057174 C176.57816,534.057174 189.69591,520.952826 189.69591,504.843406 C189.69591,488.741957 176.57816,475.637609 160.452265,475.637609 M160.452265,549.999203 C135.525348,549.999203 115.250285,529.744855 115.250285,504.843406 C115.250285,479.949928 135.525348,459.69558 160.452265,459.69558 C185.379181,459.69558 205.654244,479.949928 205.654244,504.843406 C205.654244,529.744855 185.379181,549.999203 160.452265,549.999203"/>
    <path fill="#C1A4E9" d="M82.4136208,412.204275 C82.4136208,432.737609 65.7531208,449.389058 45.1908083,449.389058 C24.6444542,449.389058 7.975975,432.737609 7.975975,412.204275 C7.975975,391.670942 24.6444542,375.027464 45.1908083,375.027464 C65.7531208,375.027464 82.4136208,391.670942 82.4136208,412.204275"/>
    <path fill="#453C82" d="M45.1947979,382.997681 C29.0689021,382.997681 15.9591313,396.102029 15.9591313,412.203478 C15.9591313,428.312899 29.0689021,441.417246 45.1947979,441.417246 C61.3206938,441.417246 74.4384438,428.312899 74.4384438,412.203478 C74.4384438,396.102029 61.3206938,382.997681 45.1947979,382.997681 M45.1947979,457.359275 C20.2758604,457.359275 0.000797916667,437.104928 0.000797916667,412.203478 C0.000797916667,387.31 20.2758604,367.055652 45.1947979,367.055652 C70.1217146,367.055652 90.3967771,387.31 90.3967771,412.203478 C90.3967771,437.104928 70.1217146,457.359275 45.1947979,457.359275"/>
    <path fill="#C1A4E9" d="M82.4136208,133.607754 C82.4136208,154.141087 65.7531208,170.792536 45.1908083,170.792536 C24.6444542,170.792536 7.975975,154.141087 7.975975,133.607754 C7.975975,113.07442 24.6444542,96.430942 45.1908083,96.430942 C65.7531208,96.430942 82.4136208,113.07442 82.4136208,133.607754"/>
    <path fill="#453C82" d="M45.1947979,104.401957 C29.0689021,104.401957 15.9591313,117.506304 15.9591313,133.607754 C15.9591313,149.717174 29.0689021,162.821522 45.1947979,162.821522 C61.3206938,162.821522 74.4384438,149.717174 74.4384438,133.607754 C74.4384438,117.506304 61.3206938,104.401957 45.1947979,104.401957 M45.1947979,178.763551 C20.2758604,178.763551 0.000797916667,158.509203 0.000797916667,133.607754 C0.000797916667,108.714275 20.2758604,88.4599275 45.1947979,88.4599275 C70.1217146,88.4599275 90.3967771,108.714275 90.3967771,133.607754 C90.3967771,158.509203 70.1217146,178.763551 45.1947979,178.763551"/>
  </g>
</svg>
