<svg xmlns="http://www.w3.org/2000/svg" xmlns:xlink="http://www.w3.org/1999/xlink" width="100" height="100" viewBox="0 0 100 100">
  <defs>
    <polygon id="spigot-seo-a" points="0 90.208 89.715 90.208 89.715 0 0 0"/>
  </defs>
  <g fill="none" fill-rule="evenodd" transform="translate(5 5)">
    <path fill="#C1A4E9" d="M68.9400938,57.463125 L57.1538438,69.2765625 C57.1407188,69.28875 57.1266563,69.301875 57.1143295,69.315 C57.1125938,69.3975 57.1294688,69.52125 57.1763438,69.646875 L71.5913438,84.061875 C74.9560312,87.2728125 80.3410313,87.2859375 83.5650937,84.061875 C86.7750937,80.6971875 86.7891563,75.3121875 83.5650937,72.0890625 L68.9400938,57.463125 Z"/>
    <path fill="#E8DFF7" d="M53.3468438,12.262125 C47.8577813,6.7730625 40.5593438,3.749625 32.7968438,3.749625 C25.0334063,3.749625 17.7359063,6.7730625 12.2468437,12.262125 C0.91528125,23.5936875 0.91528125,42.0305625 12.2468437,53.362125 C23.5774688,64.69275 42.0162188,64.69275 53.3468438,53.362125 C64.6774688,42.0305625 64.6774688,23.5936875 53.3468438,12.262125"/>
    <path fill="#C1A4E9" d="M32.7658125,24.0751875 C22.9126875,24.0751875 16.6426875,30.35175 14.51175,32.8876875 C16.6426875,35.423625 22.9126875,41.7001875 32.7658125,41.7001875 C42.6733125,41.7001875 48.908625,35.427375 51.0245625,32.8914375 C48.89925,30.3620625 42.627375,24.0751875 32.7658125,24.0751875"/>
    <path fill="#E8DFF7" d="M32.7658125,30.0750937 C31.2151875,30.0750937 29.9533125,31.3369687 29.9533125,32.8875937 C29.9533125,34.4382187 31.2151875,35.7000937 32.7658125,35.7000937 C34.3164375,35.7000937 35.5783125,34.4382187 35.5783125,32.8875937 C35.5783125,31.3369687 34.3164375,30.0750937 32.7658125,30.0750937"/>
    <path fill="#453C82" d="M32.7658125,35.7000937 C31.2151875,35.7000937 29.9533125,34.4382187 29.9533125,32.8875937 C29.9533125,31.3369687 31.2151875,30.0750937 32.7658125,30.0750937 C34.3164375,30.0750937 35.5783125,31.3369687 35.5783125,32.8875937 C35.5783125,34.4382187 34.3164375,35.7000937 32.7658125,35.7000937 M32.7658125,26.3250937 C29.1470625,26.3250937 26.2033125,29.2688437 26.2033125,32.8875937 C26.2033125,36.5063437 29.1470625,39.4500937 32.7658125,39.4500937 C36.3845625,39.4500937 39.3283125,36.5063437 39.3283125,32.8875937 C39.3283125,29.2688437 36.3845625,26.3250937 32.7658125,26.3250937"/>
    <mask id="spigot-seo-b" fill="#fff">
      <use xlink:href="#spigot-seo-a"/>
    </mask>
    <polygon fill="#453C82" points="30.891 17.512 34.641 17.512 34.641 11.325 30.891 11.325" mask="url(#spigot-seo-b)"/>
    <polygon fill="#453C82" points="46.759 21.836 43.523 19.94 46.71 14.502 49.945 16.398" mask="url(#spigot-seo-b)"/>
    <polygon fill="#453C82" points="18.586 21.836 15.398 16.398 18.633 14.502 21.821 19.94" mask="url(#spigot-seo-b)"/>
    <polygon fill="#453C82" points="30.891 54.262 34.641 54.262 34.641 48.075 30.891 48.075" mask="url(#spigot-seo-b)"/>
    <polygon fill="#453C82" points="46.71 51.086 43.524 45.648 46.759 43.752 49.946 49.19" mask="url(#spigot-seo-b)"/>
    <polygon fill="#453C82" points="18.634 51.086 15.398 49.19 18.586 43.752 21.821 45.648" mask="url(#spigot-seo-b)"/>
    <path fill="#453C82" d="M70.4663438,73.2394687 L67.8150938,70.5882187 L70.4663438,67.9369687 L73.1175938,70.5882187 L70.4663438,73.2394687 Z M75.7697813,78.5429062 L73.1185313,75.8916562 L75.7697813,73.2404062 L78.4210313,75.8916562 L75.7697813,78.5429062 Z" mask="url(#spigot-seo-b)"/>
    <path fill="#453C82" d="M83.5647187,84.061875 C80.3415938,87.285 74.9556563,87.2728125 71.5919063,84.061875 L57.1769063,69.646875 C57.1300313,69.52125 57.1122188,69.3975 57.1139608,69.315 C57.1272188,69.301875 57.1403438,69.28875 57.1534688,69.2765625 L68.9397187,57.463125 L83.5647187,72.0890625 C86.7887813,75.3121875 86.7756562,80.6971875 83.5647187,84.061875 L83.5647187,84.061875 Z M54.3006562,57.5840625 C54.8781562,57.0815625 55.4481562,56.5640625 55.9984687,56.01375 C56.5122187,55.5 56.9969062,54.969375 57.4703437,54.4303125 L62.0828437,59.0428125 L58.9215937,62.205 L54.3006562,57.5840625 Z M12.2462812,53.3625 C0.91565625,42.0309375 0.91565625,23.593125 12.2462812,12.2625 C17.7353437,6.7734375 25.0337813,3.75 32.7962813,3.75 C40.5587813,3.75 47.8572188,6.7734375 53.3472187,12.2625 C64.6778437,23.593125 64.6778437,42.0309375 53.3472187,53.3625 C42.0156562,64.693125 23.5778437,64.693125 12.2462812,53.3625 L12.2462812,53.3625 Z M86.2159688,69.436875 L71.5919063,54.811875 C70.1115938,53.3325 67.7950313,53.330625 66.3156563,54.811875 L64.7340937,56.3915625 L59.7934688,51.4509375 C68.6228438,38.6709375 67.3637813,20.9765625 55.9984688,9.6103125 C49.8006563,3.4134375 41.5609687,0 32.7962813,0 C24.0325312,0 15.7919063,3.4134375 9.59503125,9.6103125 C-3.19809375,22.4034375 -3.19809375,43.220625 9.59503125,56.01375 C15.9915937,62.4103125 24.3944062,65.608125 32.7962813,65.608125 C39.2753437,65.608125 45.7506562,63.6984375 51.3100312,59.8959375 L56.2703437,64.85625 L54.5762813,66.549375 C53.0472188,67.81875 53.0865938,70.15125 54.0334687,71.728125 C54.1122187,71.859375 54.2078438,71.9803125 54.3156562,72.0890625 L68.9715937,86.743125 C71.3903437,89.0521875 74.5215937,90.208125 77.6369063,90.208125 C80.7756563,90.208125 83.8965937,89.034375 86.2459688,86.6821875 C90.8828438,81.825 90.8687812,74.08875 86.2159688,69.436875 L86.2159688,69.436875 Z" mask="url(#spigot-seo-b)"/>
    <path fill="#453C82" d="M32.7658125,41.7 C22.9126875,41.7 16.6426875,35.4234375 14.51175,32.8875 C16.6426875,30.3515625 22.9126875,24.075 32.7658125,24.075 C42.627375,24.075 48.89925,30.361875 51.0245625,32.89125 C48.908625,35.4271875 42.6733125,41.7 32.7658125,41.7 L32.7658125,41.7 Z M54.9508125,31.8478125 C54.63675,31.3771875 47.104875,20.325 32.7658125,20.325 C18.4276875,20.325 10.8939375,31.3771875 10.5808125,31.8478125 L9.8870625,32.8875 L10.5808125,33.9271875 C10.8939375,34.3978125 18.4276875,45.45 32.7658125,45.45 C47.104875,45.45 54.63675,34.3978125 54.9508125,33.9271875 L55.643625,32.8875 L54.9508125,31.8478125 Z" mask="url(#spigot-seo-b)"/>
  </g>
</svg>
